<?xml version="1.0" encoding="UTF-8"?>
<svg id="Calque_2" data-name="Calque 2" xmlns="http://www.w3.org/2000/svg" viewBox="0 0 313.83 90.75">
  <defs>
    <style>
      .cls-1 {
        fill: #9ad8da;
      }

      .cls-2 {
        fill: #fff;
      }

      .cls-3 {
        fill: #0079c1;
      }

      .cls-4 {
        fill: #003e7e;
      }
    </style>
  </defs>
  <g id="logo-forme-bleu-moyen">
    <polygon class="cls-3" points="45.38 90.75 90.75 90.75 90.75 0 45.38 45.38 45.38 90.75"/>
  </g>
  <g id="logo-forme-bleu-fonce">
    <polygon class="cls-4" points="45.38 90.75 0 90.75 0 0 45.38 45.38 45.38 90.75"/>
  </g>
  <g id="logo-triangle-bleu-pale">
    <polygon class="cls-1" points="45.38 45.38 0 0 90.75 0 45.38 45.38"/>
  </g>
  <g id="texte">
    <path class="cls-2" d="M251.82,55.17c-5.31,0-7.96,3.98-7.96,8.62s2.65,8.62,8.29,8.62c4.97,0,6.63-2.98,6.96-4.97l-.33-.33h-3.98l-.33.33c-.33.67-1.33,1-2.32,1-2.66,0-3.32-1.99-3.32-2.65l.34-.33h10.28l.33-.33v-1.33c0-4.64-2.65-8.62-7.96-8.62ZM254.48,62.13h-5.3l-.34-.34c0-.33.34-2.65,2.99-2.65s2.98,2.32,2.98,2.65l-.33.34ZM152.03,55.17c-5.3,0-6.96,2.98-6.96,4.97l.33.33h3.98l.33-.33c.33-.99,1.33-.99,2.32-.99,1.99,0,2.32.33,2.32,1.99v.33l-.33.33s-1-.33-2.33-.33c-2.65,0-7.29.67-7.29,5.64,0,3.32,2.32,5.3,5.97,5.3,2.32,0,3.65-1.32,3.65-1.32h.33l.34.66.33.33h3.64l.34-.33v-8.95c0-4.97-1.66-7.62-6.97-7.62ZM154.35,66.11c0,1.32-1.32,2.32-2.98,2.32s-2.32-.66-2.32-1.66c0-1.32.99-1.99,2.98-1.99,1.33,0,1.99.33,1.99.33l.33.33v.67ZM273.38,55.5l-.33.33v8.62c0,2.32-.99,3.98-3.31,3.98-1.99,0-2.65-1.33-2.65-2.99v-9.61l-.33-.33h-3.98l-.33.33v9.95c0,3.98,2.32,6.63,6.3,6.63,2.98,0,3.98-1.65,3.98-1.65h.33l.33.99.33.33h3.65l.33-.33v-15.91l-.33-.33h-3.98ZM305.87,55.17c-5.3,0-7.95,3.98-7.95,8.62s2.65,8.62,8.29,8.62c4.97,0,6.64-2.98,6.96-4.97l-.33-.33h-3.98l-.32.33c-.34.67-1.34,1-2.33,1-2.65,0-3.31-1.99-3.31-2.65l.33-.33h10.28l.33-.33v-1.33c0-4.64-2.65-8.62-7.96-8.62ZM308.53,62.13h-5.31l-.33-.34c0-.33.33-2.65,2.98-2.65s2.99,2.32,2.99,2.65l-.32.34ZM162.97,55.5l-.33.33v15.91l.33.33h3.98l.33-.33v-15.91l-.33-.33h-3.98ZM292.94,55.5l-.33.33-3.98,10.28h-.33l-3.98-10.28-.33-.33h-2.98l-.34.33v3.32l5.64,12.6.33.33h3.64l.34-.33,5.63-12.6v-3.32l-.33-.33h-2.98ZM135.45,48.87l-.33.33-6.63,16.24h-.34l-6.63-16.24-.33-.33h-4.97l-.33.33v22.54l.33.33h3.98l.33-.33v-12.93h.33l5.31,12.93.33.33h3.64l.33-.33,5.3-12.93h.33v12.93l.33.33h3.98l.33-.33v-22.54l-.33-.33h-4.97ZM195.13,55.17c-4.97,0-8.29,3.31-8.29,8.62s3.32,8.62,8.29,8.62,8.29-3.31,8.29-8.62-3.31-8.62-8.29-8.62ZM195.13,68.43c-2.32,0-3.65-1.66-3.65-4.64s1.33-4.64,3.65-4.64,3.65,1.65,3.65,4.64-1.33,4.64-3.65,4.64ZM234.92,55.17c-2.32,0-3.64.99-4.31,1.66h-.33l-.33-.99-.33-.33h-3.65l-.33.33v15.91l.33.33h3.98l.33-.33v-8.28c0-2.99,1.32-4.31,3.65-4.31,1.99,0,2.65,1.32,2.65,2.98v9.61l.33.33h3.98l.33-.33v-9.95c0-3.98-2.32-6.63-6.3-6.63ZM215.69,55.17c-2.32,0-3.65.99-4.31,1.66h-.33l-.33-.99-.33-.33h-3.64l-.33.33v15.91l.33.33h3.98l.33-.33v-8.28c0-2.99,1.32-4.31,3.64-4.31,1.99,0,2.65,1.32,2.65,2.98v9.61l.33.33h3.98l.33-.33v-9.95c0-3.98-2.32-6.63-6.29-6.63ZM162.97,48.87l-.33.33v3.31l.33.33h3.98l.33-.33v-3.31l-.33-.33h-3.98ZM179.22,62.13c-1.99-.34-3.98-.34-3.98-1.66,0-1,.66-1.32,2.32-1.32s2.32.33,2.32.99l.33.33h3.98l.34-.33c0-3.32-2.98-4.97-6.96-4.97-4.97,0-6.96,2.32-6.96,4.97,0,3.98,4.31,4.97,6.29,5.3,1.99.33,3.32.33,3.32,1.66,0,1-.99,1.33-2.65,1.33s-2.65-.33-2.65-1.66l-.33-.33h-3.98l-.34.33c0,3.31,2.66,5.64,7.3,5.64,5.3,0,7.29-2.65,7.29-5.3,0-3.98-3.65-4.64-5.63-4.97ZM157.14,39.28l.46-.46v-19.03l-.46-.46h-1.36l-.46.46v19.03l.46.46h1.36ZM167.42,23.83h.48l.47-.46v-.8l-2.57-2.85-.71-.38h-1.04l-.46.46v.82l3.14,2.86.69.36ZM172.77,35.16l.03-.16-.48-.48h-1.36l-.42.42-.02.07c-.58,1.74-1.71,2.55-3.56,2.55-3.46,0-4.32-3.22-4.38-4.53l.09-.09h9.93l.46-.46v-.96c0-4.21-2.51-6.94-6.39-6.94s-6.39,2.73-6.39,6.94v.55c0,3.62,1.75,7.49,6.66,7.49,3.76,0,5.47-2.28,5.83-4.4ZM166.67,26.59c3.16,0,4.05,2.61,4.1,4.25l-.09.09h-8.02l-.09-.09c.04-1.64.95-4.25,4.1-4.25ZM197.02,39.56c3.75,0,5.47-2.28,5.83-4.4l.03-.16-.48-.48h-1.37l-.42.42-.02.07c-.59,1.74-1.71,2.55-3.57,2.55-3.46,0-4.32-3.22-4.37-4.53l.08-.09h9.94l.46-.46v-.96c0-4.21-2.51-6.94-6.39-6.94s-6.39,2.73-6.39,6.94v.55c0,3.62,1.75,7.49,6.67,7.49ZM196.74,26.59c3.16,0,4.06,2.61,4.1,4.25l-.09.09h-8.02l-.08-.09c.04-1.64.94-4.25,4.1-4.25ZM235.1,39.56c3.76,0,5.48-2.28,5.83-4.4l.03-.16-.48-.48h-1.36l-.42.42-.02.07c-.58,1.74-1.71,2.55-3.57,2.55-3.45,0-4.32-3.22-4.37-4.53l.09-.09h9.94l.46-.46v-.96c0-4.21-2.51-6.94-6.39-6.94s-6.38,2.73-6.38,6.94v.55c0,3.62,1.75,7.49,6.66,7.49ZM234.82,26.59c3.16,0,4.06,2.61,4.1,4.25l-.09.09h-8.02l-.09-.09c.05-1.64.95-4.25,4.1-4.25ZM151.34,39.28l.46-.46v-19.03l-.46-.46h-1.36l-.46.46v19.03l.46.46h1.36ZM225.76,19.8l-.46-.46h-1.36l-.46.46v6.65c-.58-.79-1.84-1.87-4.38-1.87-3.77,0-6.11,2.87-6.11,7.49s2.34,7.49,6.11,7.49c2.67,0,3.92-1.18,4.46-1.99l.21,1.27.44.44h1.09l.46-.46v-19.03ZM219.37,37.55c-3.39,0-4.1-2.98-4.1-5.48s.72-5.48,4.1-5.48,4.1,2.98,4.1,5.48-.71,5.48-4.1,5.48ZM187.68,25.32l-.46-.46h-1.09l-.43.44-.22,1.27c-.54-.8-1.8-1.99-4.46-1.99-3.77,0-6.11,2.87-6.11,7.49s2.34,7.49,6.11,7.49c2.52,0,3.78-1.06,4.36-1.85-.12,3.7-1.31,5.36-3.81,5.36s-3.07-1.19-3.28-2.23l-.02-.09-.43-.44h-1.37l-.48.48.02.15c.33,2.63,2.35,4.14,5.56,4.14,4.05,0,6.11-2.71,6.11-8.04v-11.72ZM181.3,37.55c-3.4,0-4.11-2.98-4.11-5.48s.71-5.48,4.11-5.48,4.1,2.98,4.1,5.48-.71,5.48-4.1,5.48ZM140.17,39.56c4.05,0,6.66-2.94,6.66-7.49s-2.62-7.49-6.66-7.49-6.66,2.94-6.66,7.49,2.61,7.49,6.66,7.49ZM140.17,26.59c2.66,0,4.38,2.15,4.38,5.48s-1.72,5.48-4.38,5.48-4.37-2.15-4.37-5.48,1.72-5.48,4.37-5.48ZM123.62,39.56c4.33,0,7.23-2.37,7.76-6.34l.02-.15-.48-.48h-1.36l-.44.44-.02.1c-.53,2.94-2.38,4.43-5.48,4.43-4.23,0-6.86-3.16-6.86-8.24s2.63-8.24,6.86-8.24c3.04,0,4.94,1.44,5.48,4.16l.02.09.44.43h1.36l.48-.48-.02-.15c-.55-3.8-3.45-6.07-7.76-6.07-4.55,0-9.14,3.17-9.14,10.25s4.59,10.25,9.14,10.25Z"/>
  </g>
</svg>